<svg xmlns="http://www.w3.org/2000/svg" viewBox="0 0 64 64" aria-hidden="true">
  <defs>
    <linearGradient id="jss1" x1="0" y1="0" x2="1" y2="1">
      <stop offset="0" stop-color="#f7df1e"/>
      <stop offset="1" stop-color="#ffe769"/>
    </linearGradient>
  </defs>
  <rect width="64" height="64" rx="12" fill="url(#jss1)"/>
  <g fill="#1a1a1a" opacity="0.95">
    <path d="M30 40.5c0 3.3-1.8 5.5-5.3 5.5-2.2 0-3.8-.9-4.9-2.5l3-2c.6.8 1.1 1.3 2 .1V31h3.2v9.5z"/>
    <path d="M45.6 45.6c-1.1.9-2.8 1.4-4.6 1.4-3.2 0-5.5-1.7-5.5-4.4 0-2.2 1.3-3.5 4.2-4.1l2.8-.6c1.1-.2 1.5-.5 1.5-1 0-.9-1-1.3-2.4-1.3-1.6 0-2.9.6-4.2 1.6l-2-2.3c1.8-1.6 4-2.4 6.5-2.4 3.7 0 6.1 1.8 6.1 4.8v7.7c0 .8.1 1.4.3 2h-2.7c-.2-.4-.3-.9-.4-1.4z"/>
  </g>
</svg>



